Coordinates
version=1
nRows=19
nColumns=24
inDegrees=yes

Units are S.I. units (second, meters, Newtons, ...)
Angles are in degrees.

endheader
time	pelvis_tilt	pelvis_list	pelvis_rotation	pelvis_tx	pelvis_ty	pelvis_tz	hip_flexion_r	hip_adduction_r	hip_rotation_r	knee_angle_r	ankle_angle_r	subtalar_angle_r	mtp_angle_r	hip_flexion_l	hip_adduction_l	hip_rotation_l	knee_angle_l	ankle_angle_l	subtalar_angle_l	mtp_angle_l	lumbar_extension	lumbar_bending	lumbar_rotation
      4.81500000	     -8.68060779	     -9.80094846	     10.59205885	     -1.39609325	     -0.02837989	      0.50552766	     23.59401708	      9.44446371	     -7.39338651	    -20.75291140	     -3.50764622	     -8.78368879	      3.03090194	     18.41565259	     -9.24590122	      5.46056281	    -63.39866488	    -27.36067157	     -4.31738923	     24.08931362	      6.70477720	      8.44596665	     -6.99419862
      4.82000000	     -8.58835862	     -9.56654164	     10.57100577	     -1.38979674	     -0.02745701	      0.50586334	     22.91350909	      9.41835482	     -7.09201094	    -20.60071306	     -3.21202587	     -8.95236820	      2.91622328	     19.19856145	     -8.88332683	      5.51483783	    -64.18013036	    -26.66393102	     -5.52585494	     23.40570540	      6.52271705	      8.17246825	     -6.76365899
      4.82500000	     -8.52451769	     -9.28785401	     10.54990873	     -1.38357840	     -0.02649074	      0.50616560	     22.24597016	      9.33777728	     -6.74301937	    -20.42831542	     -2.96845697	     -9.14202603	      2.78787616	     19.98858113	     -8.44957807	      5.59552670	    -64.84318298	    -25.97553009	     -6.50351456	     22.94688676	      6.35525757	      7.85290135	     -6.51425727
      4.83000000	     -8.48491507	     -8.99726032	     10.47109327	     -1.37731914	     -0.02553279	      0.50652048	     21.58150925	      9.25915694	     -6.34459224	    -20.22590430	     -2.71857938	     -9.31424191	      2.66305859	     20.77060867	     -8.03537191	      5.57913694	    -65.39962994	    -25.24826100	     -7.31311886	     22.56292800	      6.21672986	      7.52283335	     -6.23173365
      4.83500000	     -8.47733401	     -8.63935806	     10.41903188	     -1.37113579	     -0.02452782	      0.50682769	     20.94065776	      9.08551381	     -5.98200365	    -20.01784554	     -2.51053489	     -9.51108935	      2.55137714	     21.55305475	     -7.51543453	      5.61271499	    -65.82235079	    -24.49731184	     -7.88537381	     22.45858485	      6.09715005	      7.11772897	     -5.96864783
      4.84000000	     -8.48979475	     -8.30267974	     10.38033056	     -1.36493508	     -0.02353407	      0.50712934	     20.29383159	      8.92184244	     -5.61359867	    -19.74771244	     -2.29299584	     -9.65155278	      2.47815054	     22.34857485	     -7.02006865	      5.64177904	    -66.13848184	    -23.74439657	     -8.35072590	     22.48333970	      6.01715120	      6.71864100	     -5.78244228
      4.84500000	     -8.53778498	     -7.84152614	     10.13582907	     -1.35879857	     -0.02250384	      0.50764119	     19.69425121	      8.68753501	     -5.08203929	    -19.54806654	     -2.12496962	     -9.85865463	      2.32058305	     23.07936875	     -6.47472914	      5.41441696	    -66.32911543	    -22.88119400	     -8.60328330	     22.41135829	      5.91213347	      6.22405874	     -5.28069061
      4.85000000	     -8.59943605	     -7.40208651	      9.99271568	     -1.35268352	     -0.02149131	      0.50800813	     19.08805372	      8.42484226	     -4.64303113	    -19.28557385	     -1.94238576	    -10.02035455	      2.21373739	     23.83811389	     -5.90951658	      5.28762361	    -66.42358371	    -22.01821787	     -8.74185144	     22.45593638	      5.85274478	      5.74247316	     -4.95792957
      4.85500000	     -8.68335583	     -6.94103478	      9.76631531	     -1.34656578	     -0.02047657	      0.50850738	     18.49678322	      8.15650809	     -4.14122344	    -19.00922239	     -1.77589452	    -10.13352219	      2.12009878	     24.56861982	     -5.36196671	      5.07894182	    -66.39837456	    -21.08188491	     -8.71883132	     22.54588367	      5.80545596	      5.23280534	     -4.55242647
      4.86000000	     -8.77742959	     -6.47299745	      9.52875947	     -1.34047010	     -0.01948327	      0.50900486	     17.90915020	      7.87030976	     -3.64498958	    -18.71073634	     -1.60653048	    -10.22012151	      2.04657611	     25.28734860	     -4.81778196	      4.84965486	    -66.27395117	    -20.13686518	     -8.60485326	     22.65401811	      5.77409230	      4.72332965	     -4.15215847
      4.86500000	     -8.87621820	     -5.99083359	      9.29054695	     -1.33443262	     -0.01851689	      0.50947032	     17.33442854	      7.55187877	     -3.18796781	    -18.41520980	     -1.43788423	    -10.28389248	      1.99989730	     25.99190737	     -4.26348383	      4.60407697	    -66.05299340	    -19.21126960	     -8.45560358	     22.77369533	      5.74567338	      4.20520768	     -3.75240654
      4.87000000	     -8.97230421	     -5.52524439	      9.00809690	     -1.32835321	     -0.01758754	      0.50998632	     16.73844669	      7.25633411	     -2.67651944	    -18.07671439	     -1.25482959	    -10.29767481	      1.97625652	     26.66745808	     -3.76253532	      4.31389093	    -65.74253600	    -18.28511395	     -8.23366223	     22.88047414	      5.73059676	      3.71407130	     -3.32889393
      4.87500000	     -9.06928446	     -5.04922197	      8.74204093	     -1.32234171	     -0.01668828	      0.51044413	     16.16675647	      6.92480348	     -2.26703419	    -17.76163377	     -1.09877512	    -10.29992681	      1.97029530	     27.32331807	     -3.24157951	      4.03567552	    -65.33094252	    -17.41826437	     -8.07535174	     22.97917526	      5.71386658	      3.21579570	     -2.92248952
      4.88000000	     -9.15782460	     -4.59352230	      8.45575917	     -1.31629425	     -0.01584477	      0.51091594	     15.57584518	      6.61235582	     -1.83731080	    -17.41647632	     -0.92551904	    -10.26759396	      1.98299663	     27.95127352	     -2.76598049	      3.73836828	    -64.83746802	    -16.60238024	     -7.92566092	     23.06328011	      5.70464262	      2.74507647	     -2.51590893
      4.88500000	     -9.21228827	     -4.17554346	      8.12326431	     -1.31023211	     -0.01505196	      0.51140230	     14.94224802	      6.34524281	     -1.34603967	    -17.04364452	     -0.74195626	    -10.18810791	      2.00958319	     28.52950076	     -2.37123695	      3.40407330	    -64.27861771	    -15.81309931	     -7.77794552	     23.10387008	      5.67331374	      2.33619674	     -2.06712031
      4.89000000	     -9.27321724	     -3.76096740	      7.81887105	     -1.30418502	     -0.01432490	      0.51182794	     14.33687737	      6.05714033	     -0.97528795	    -16.69271239	     -0.58289097	    -10.12443322	      2.02923441	     29.09670870	     -1.97033720	      3.09249740	    -63.62998218	    -15.10409866	     -7.73068234	     23.12552532	      5.65711456	      1.92741693	     -1.66786145
      4.89500000	     -9.30841291	     -3.37671883	      7.48567176	     -1.29811095	     -0.01365947	      0.51224795	     13.69887853	      5.80079884	     -0.56023529	    -16.32188229	     -0.40633352	    -10.02571762	      2.05517040	     29.62032230	     -1.63053280	      2.76225864	    -62.91320484	    -14.45256607	     -7.72085216	     23.11538349	      5.62952674	      1.56603565	     -1.24882326
      4.90000000	     -9.31877205	     -3.02181357	      7.13622698	     -1.29202332	     -0.01305678	      0.51264517	     13.03826499	      5.56997763	     -0.14597312	    -15.94540534	     -0.22847247	     -9.91280845	      2.07137626	     30.10295568	     -1.34338761	      2.42288915	    -62.13128093	    -13.86034392	     -7.76767233	     23.05985855	      5.58699233	      1.25089273	     -0.82733672
      4.90500000	     -9.28412796	     -2.70784207	      6.76874347	     -1.28592812	     -0.01250499	      0.51302116	     12.32836185	      5.38007803	      0.29576724	    -15.55413446	     -0.04194597	     -9.77664229	      2.07026214	     30.52765265	     -1.12435129	      2.07680846	    -61.29417408	    -13.33222531	     -7.87514934	     22.93197021	      5.50817528	      0.99168613	     -0.38453846
